<?xml version="1.0" encoding="iso-8859-1"?>
<!-- Uploaded to: SVG Repo, www.svgrepo.com, Generator: SVG Repo Mixer Tools -->
<svg height="800px" width="800px" version="1.1" id="Layer_1" xmlns="http://www.w3.org/2000/svg" xmlns:xlink="http://www.w3.org/1999/xlink" 
	 viewBox="0 0 392.598 392.598" xml:space="preserve">
<path style="fill:#FFFFFF;" d="M177.778,205.346l47.063,36.073v-27.41c0-6.012,4.848-10.925,10.925-10.925h24.372
	c5.301,0,9.632-4.331,9.632-9.632V31.577c0-5.301-4.331-9.632-9.632-9.632H31.547c-5.301,0-9.632,4.331-9.632,9.632v161.875
	c0,5.301,4.331,9.632,9.632,9.632h139.636C173.576,203.084,175.838,203.86,177.778,205.346z"/>
<polygon style="fill:#56ACE0;" points="182.303,181.298 43.572,181.298 43.572,43.601 247.984,43.601 247.984,181.298 
	203.055,181.298 203.055,197.201 "/>
<g>
	<path style="fill:#194F82;" d="M165.43,74.761h52.234c6.012,0,10.925-4.848,10.925-10.925s-4.848-10.925-10.925-10.925H165.43
		c-6.012,0-10.925,4.848-10.925,10.925C154.57,69.783,159.418,74.761,165.43,74.761z"/>
	<path style="fill:#194F82;" d="M165.43,123.375h52.234c6.012,0,10.925-4.848,10.925-10.925s-4.848-10.925-10.925-10.925H165.43
		c-6.012,0-10.925,4.848-10.925,10.925S159.418,123.375,165.43,123.375z"/>
	<path style="fill:#194F82;" d="M228.655,161.128c0-6.012-4.848-10.925-10.925-10.925h-52.234c-6.012,0-10.925,4.848-10.925,10.925
		s4.848,10.925,10.925,10.925h52.234C223.677,172.053,228.655,167.14,228.655,161.128z"/>
</g>
<path style="fill:#FFC10D;" d="M121.729,149.556c0-3.943-2.392-7.564-5.883-8.986c-15.127-5.947-31.741-5.947-46.933,0
	c-3.556,1.422-5.883,5.042-5.883,8.986v12.347h58.699V149.556L121.729,149.556z"/>
<path style="fill:#194F82;" d="M123.798,120.272c-20.234-7.952-42.602-7.952-62.836,0c-11.83,4.655-19.717,16.356-19.717,29.285
	v23.273c0,6.012,4.848,10.925,10.925,10.925h80.549c6.012,0,10.925-4.848,10.925-10.925v-23.273
	C143.515,136.627,135.628,124.926,123.798,120.272z M62.966,149.556c0-3.943,2.392-7.564,5.883-8.986
	c15.127-5.947,31.741-5.947,46.933,0c3.556,1.422,5.883,5.042,5.883,8.986v12.347H62.901v-12.347H62.966z"/>
<path style="fill:#FFFFFF;" d="M92.315,62.995c-5.301,0-9.632,4.331-9.632,9.632s4.331,9.632,9.632,9.632s9.632-4.331,9.632-9.632
	C102.077,67.391,97.681,62.995,92.315,62.995z"/>
<path style="fill:#194F82;" d="M92.315,41.209c-17.39,0-31.547,14.158-31.547,31.547s14.158,31.547,31.547,31.547
	s31.547-14.158,31.547-31.547S109.705,41.209,92.315,41.209z M92.315,82.389c-5.301,0-9.632-4.331-9.632-9.632
	c0-5.301,4.331-9.632,9.632-9.632s9.632,4.331,9.632,9.632C102.077,78.057,97.681,82.389,92.315,82.389z"/>
<path style="fill:#FFC10D;" d="M370.747,190.413c0-3.297-2.715-6.077-6.077-6.077H291.62v9.05c0,17.39-14.093,31.547-31.547,31.547
	h-13.446v38.594c0,9.051-10.343,14.158-17.519,8.663l-61.673-47.321h-0.711v98.909c0,3.297,2.715,6.077,6.077,6.077h20.04
	c6.012,0,10.925,4.848,10.925,10.925v18.683l35.685-27.345c1.939-1.487,4.267-2.263,6.659-2.263h118.562
	c3.297,0,6.077-2.715,6.077-6.077"/>
<path style="fill:#194F82;" d="M364.671,162.55H291.62V31.577c0-17.39-14.093-31.547-31.547-31.547H31.547
	C14.158,0.029,0,14.187,0,31.577v161.875c0,17.39,14.158,31.418,31.547,31.418h113.455v98.909c0,15.386,12.541,27.927,27.927,27.927
	h9.115v29.931c0,9.051,10.343,14.158,17.519,8.663l50.295-38.529h114.812c15.386,0,27.927-12.541,27.927-27.927v-133.43
	C392.533,175.027,379.992,162.55,364.671,162.55z M370.747,223.06h-43.636c-6.012,0-10.925,4.848-10.925,10.925
	c0,6.012,4.848,10.925,10.925,10.925h43.636v21.786h-21.786c-6.012,0-10.925,4.849-10.925,10.925
	c0,6.012,4.848,10.925,10.925,10.925h21.786v35.362c0,3.297-2.715,6.077-6.077,6.077H246.109c-2.392,0-4.719,0.776-6.659,2.263
	l-35.685,27.345V340.91c0-6.012-4.848-10.925-10.925-10.925H172.8c-3.297,0-6.077-2.715-6.077-6.077v-98.909h0.711l61.673,47.321
	c7.176,5.495,17.519,0.388,17.519-8.663v-38.659h13.446c17.39,0,31.547-14.093,31.547-31.547v-9.05h73.051
	c3.297,0,6.077,2.715,6.077,6.077V223.06z M21.786,193.451V31.577c0-5.301,4.331-9.632,9.632-9.632h228.59
	c5.301,0,9.632,4.331,9.632,9.632v161.875c0,5.301-4.331,9.632-9.632,9.632h-24.307c-6.012,0-10.925,4.848-10.925,10.925v27.41
	l-47.063-36.073c-1.939-1.487-4.267-2.263-6.659-2.263H31.547C26.117,203.084,21.786,198.752,21.786,193.451z"/>
</svg>